<svg width="1000" height="1000" viewBox="0 0 1000 1000" fill="none" xmlns="http://www.w3.org/2000/svg">
<path d="M482.08 487.26C475.61 421.07 416.1 372.59 349.6 372.59H293.47C280.48 372.59 268.92 380.39 263.51 392.2C248.46 425.04 240 461.51 240 500C240 538.5 248.46 574.98 263.51 607.83C268.92 619.64 280.48 627.44 293.47 627.44H355.28C429.75 627.43 489.5 563.21 482.08 487.26Z" fill="#F9FAFB"/>
<path d="M524.43 241.12C509.79 239.78 495.37 239.66 481.27 240.67C450.08 242.9 440.58 285.47 467.79 300.88C537.21 340.19 584.17 414.68 584.17 500.02C584.17 585.33 537.23 659.81 467.83 699.13C439.71 715.06 451.11 757.44 483.37 759.48C488.87 759.83 494.41 760.01 500 760.01C653.18 760.01 775.42 627.54 758.42 470.92C745.28 349.88 645.66 252.24 524.43 241.12Z" fill="#F9FAFB"/>
</svg>
