<svg width="1000" height="1000" viewBox="0 0 1000 1000" fill="none" xmlns="http://www.w3.org/2000/svg">
<path d="M556.29 272.5L500 240L443.71 272.5L387.42 305L331.12 337.5L274.83 370V435L331.12 467.5V402.5L387.42 370L443.71 337.5L500 305L556.29 337.5V402.5V467.5V532.5L612.58 565V500V435V370V305L556.29 272.5Z" fill="#F9FAFB"/>
<path d="M725.17 565V500V435V370L668.88 337.5H668.87L612.58 370L668.87 402.5V467.5H668.88H668.87V532.5V597.5H668.88H668.87L612.58 630L556.29 597.5L500 565L443.71 532.5L387.42 565L443.71 597.5L500 630L556.29 662.5L612.58 695L668.87 662.5L725.17 630V565Z" fill="#F9FAFB"/>
<path d="M556.29 662.5L500 695L443.71 662.5L387.42 630L331.12 597.5V532.5L387.42 500L443.71 467.5L500 435V370L443.71 402.5L387.42 435L331.12 467.5L274.83 500V565V630L331.12 662.5L387.42 695L443.71 727.5L500 760L556.29 727.5V662.5Z" fill="#F9FAFB"/>
</svg>
