<svg width="1000" height="1000" viewBox="0 0 1000 1000" fill="none" xmlns="http://www.w3.org/2000/svg">
<path d="M711.95 411.95C711.95 295.08 616.87 200 500 200C383.13 200 288.05 295.08 288.05 411.95C288.05 443.31 294.95 473.08 307.23 499.88C294.66 527.4 288.05 557.61 288.05 588.04C288.05 704.92 383.13 800 500 800C616.87 800 711.95 704.92 711.95 588.05C711.95 556.67 705.04 526.89 692.75 500.07C705.32 472.56 711.95 442.39 711.95 411.95ZM547.63 381.55C539.74 363.04 521.39 350.07 500 350.07C471.41 350.07 448.24 373.25 448.24 401.83C448.24 430.42 471.41 453.59 500 453.59C516.88 453.59 531.83 445.47 541.28 432.96C609.83 451.22 660.5 513.82 660.5 588.04C660.5 676.54 588.5 748.54 500 748.54C411.5 748.54 339.51 676.54 339.51 588.04C339.51 576.68 340.79 565.39 343.15 554.35C371.72 585.79 409.6 608.58 452.37 618.44C460.26 636.95 478.61 649.92 500 649.92C528.59 649.92 551.76 626.75 551.76 598.16C551.76 569.57 528.59 546.4 500 546.4C483.12 546.4 468.17 554.52 458.72 567.03C390.17 548.77 339.51 486.17 339.51 411.95C339.51 323.45 411.5 251.46 500 251.46C588.5 251.46 660.5 323.45 660.5 411.95C660.5 423.31 659.22 434.61 656.86 445.64C628.28 414.21 590.4 391.41 547.63 381.55ZM500 423.27C488.16 423.27 478.56 413.67 478.56 401.83C478.56 389.99 488.16 380.39 500 380.39C511.84 380.39 521.44 389.99 521.44 401.83C521.44 413.67 511.84 423.27 500 423.27ZM500 576.73C511.84 576.73 521.44 586.33 521.44 598.17C521.44 610.01 511.84 619.61 500 619.61C488.16 619.61 478.56 610.01 478.56 598.17C478.56 586.33 488.16 576.73 500 576.73Z" fill="#F9FAFB"/>
</svg>
